<?xml version="1.0" encoding="utf-8"?>
<svg xmlns="http://www.w3.org/2000/svg" viewBox="3 2.25 18 19.5" width="18px" height="19.5px"><defs><linearGradient gradientUnits="userSpaceOnUse" x1="12" y1="2.25" x2="12" y2="21.75" id="gradient-0" gradientTransform="matrix(0.625907, -0.625907, 0.625907, 0.625907, -0.8694, 15.169327)"><stop offset="0" style="stop-color: rgb(247, 37, 133);"/><stop offset="1" style="stop-color: rgb(72, 149, 239);"/></linearGradient></defs><path d="M18.375 2.25c-1.035 0-1.875.84-1.875 1.875v15.75c0 1.035.84 1.875 1.875 1.875h.75c1.035 0 1.875-.84 1.875-1.875V4.125c0-1.036-.84-1.875-1.875-1.875h-.75ZM9.75 8.625c0-1.036.84-1.875 1.875-1.875h.75c1.036 0 1.875.84 1.875 1.875v11.25c0 1.035-.84 1.875-1.875 1.875h-.75a1.875 1.875 0 0 1-1.875-1.875V8.625ZM3 13.125c0-1.036.84-1.875 1.875-1.875h.75c1.036 0 1.875.84 1.875 1.875v6.75c0 1.035-.84 1.875-1.875 1.875h-.75A1.875 1.875 0 0 1 3 19.875v-6.75Z" style="fill: url(&quot;#gradient-0&quot;);" id="object-0"/></svg>