<?xml version="1.0" encoding="utf-8"?>
<svg xmlns="http://www.w3.org/2000/svg" viewBox="0 0 24 24" fill="currentColor" class="size-6" xmlns:bx="https://boxy-svg.com" width="24px" height="24px"><defs><linearGradient gradientUnits="userSpaceOnUse" x1="12" y1="12" x2="12" y2="18" id="gradient-0" gradientTransform="matrix(0.703644, -0.710552, 0.956175, 0.94688, -10.59513, 9.323442)"><stop offset="0" style="stop-color: rgb(181, 87, 175);"/><stop offset="1" style="stop-color: rgb(126, 120, 211);"/></linearGradient><linearGradient gradientUnits="userSpaceOnUse" x1="12" y1="2.25" x2="12" y2="21.75" id="gradient-1" gradientTransform="matrix(0.835425, -0.835425, 0.835425, 0.835425, -7.97249, 13.062775)"><stop offset="0" style="stop-color: rgb(247, 37, 133);"/><stop offset="1" style="stop-color: rgb(72, 149, 239);"/></linearGradient><bx:export><bx:file format="svg"/></bx:export></defs><path d="M12.75 12.75a.75.75 0 1 1-1.5 0 .75.75 0 0 1 1.5 0ZM7.5 15.75a.75.75 0 1 0 0-1.5.75.75 0 0 0 0 1.5ZM8.25 17.25a.75.75 0 1 1-1.5 0 .75.75 0 0 1 1.5 0ZM9.75 15.75a.75.75 0 1 0 0-1.5.75.75 0 0 0 0 1.5ZM10.5 17.25a.75.75 0 1 1-1.5 0 .75.75 0 0 1 1.5 0ZM12 15.75a.75.75 0 1 0 0-1.5.75.75 0 0 0 0 1.5ZM12.75 17.25a.75.75 0 1 1-1.5 0 .75.75 0 0 1 1.5 0ZM14.25 15.75a.75.75 0 1 0 0-1.5.75.75 0 0 0 0 1.5ZM15 17.25a.75.75 0 1 1-1.5 0 .75.75 0 0 1 1.5 0ZM16.5 15.75a.75.75 0 1 0 0-1.5.75.75 0 0 0 0 1.5ZM15 12.75a.75.75 0 1 1-1.5 0 .75.75 0 0 1 1.5 0ZM16.5 13.5a.75.75 0 1 0 0-1.5.75.75 0 0 0 0 1.5Z" style="fill: url(&quot;#gradient-0&quot;);"/><path fill-rule="evenodd" d="M6.75 2.25A.75.75 0 0 1 7.5 3v1.5h9V3A.75.75 0 0 1 18 3v1.5h.75a3 3 0 0 1 3 3v11.25a3 3 0 0 1-3 3H5.25a3 3 0 0 1-3-3V7.5a3 3 0 0 1 3-3H6V3a.75.75 0 0 1 .75-.75Zm13.5 9a1.5 1.5 0 0 0-1.5-1.5H5.25a1.5 1.5 0 0 0-1.5 1.5v7.5a1.5 1.5 0 0 0 1.5 1.5h13.5a1.5 1.5 0 0 0 1.5-1.5v-7.5Z" clip-rule="evenodd" style="fill: url(&quot;#gradient-1&quot;);"/></svg>