<?xml version="1.0" encoding="utf-8"?>
<svg xmlns="http://www.w3.org/2000/svg" viewBox="0 0 24 24" fill="currentColor" class="size-6" xmlns:bx="https://boxy-svg.com" width="24px" height="24px"><defs><linearGradient gradientUnits="userSpaceOnUse" x1="12" y1="8.67" x2="12" y2="20.25" id="gradient-0" gradientTransform="matrix(1.39269, -1.39269, 1.39269, 1.39269, -25.407815, 8.701518)"><stop offset="0" style="stop-color: rgb(247, 37, 133);"/><stop offset="1" style="stop-color: rgb(72, 149, 239);"/></linearGradient><linearGradient gradientUnits="userSpaceOnUse" x1="12" y1="3.75" x2="12" y2="13.108" id="gradient-1" gradientTransform="matrix(1.717405, -1.717405, 1.717405, 1.717405, -23.980363, 18.34534)"><stop offset="0" style="stop-color: rgb(247, 37, 133);"/><stop offset="1" style="stop-color: rgb(170, 94, 182);"/></linearGradient><bx:export><bx:file format="svg"/></bx:export></defs><path d="M1.5 8.67v8.58a3 3 0 0 0 3 3h15a3 3 0 0 0 3-3V8.67l-8.928 5.493a3 3 0 0 1-3.144 0L1.5 8.67Z" style="paint-order: stroke; fill: url(&quot;#gradient-0&quot;);"/><path d="M22.5 6.908V6.75a3 3 0 0 0-3-3h-15a3 3 0 0 0-3 3v.158l9.714 5.978a1.5 1.5 0 0 0 1.572 0L22.5 6.908Z" style="paint-order: stroke; fill: url(&quot;#gradient-1&quot;);"/></svg>